<?xml version="1.0"?>
<svg xmlns="http://www.w3.org/2000/svg" xmlns:xlink="http://www.w3.org/1999/xlink" version="1.1" viewBox="0 0 192 192" width="32px" height="32px"><g fill="none" fill-rule="nonzero" stroke="none" stroke-width="1" stroke-linecap="butt" stroke-linejoin="miter" stroke-miterlimit="10" stroke-dasharray="" stroke-dashoffset="0" font-family="none" font-weight="none" font-size="none" text-anchor="none" style="mix-blend-mode: normal"><path d="M0,192v-192h192v192z" fill="none"/><g id="Layer_1"><g fill="#000000" font-family="-apple-system, BlinkMacSystemFont, &quot;San Francisco&quot;, HelveticaNeue-Light, &quot;Helvetica Neue Light&quot;, &quot;Helvetica Neue&quot;, &quot;Segoe UI&quot;, &quot;Fira Sans&quot;, Roboto, Oxygen, Ubuntu, &quot;Droid Sans&quot;, Arial, sans-serif" font-weight="400" font-size="16" text-anchor="start"/><path d="M172,155.332c0,9.208 -7.46,16.668 -16.668,16.668h-86.664c-9.204,0 -16.668,-7.46 -16.668,-16.668v-86.664c0,-9.208 7.464,-16.668 16.668,-16.668h86.668c9.204,0 16.664,7.46 16.664,16.668z" fill="#686868"/><path d="M140,123.332c0,9.208 -7.46,16.668 -16.668,16.668h-86.664c-9.204,0 -16.668,-7.46 -16.668,-16.668v-86.664c0,-9.208 7.464,-16.668 16.668,-16.668h86.668c9.204,0 16.664,7.46 16.664,16.668z" fill="#f2f2f2"/><path d="M72,112.484l-27.744,-27.74l8.488,-8.488l19.256,19.26l43.256,-43.26l8.488,8.488z" fill="#6e6e6e"/></g></g></svg>
