<?xml version="1.0" standalone="no"?>
<!DOCTYPE svg PUBLIC "-//W3C//DTD SVG 20010904//EN"
 "http://www.w3.org/TR/2001/REC-SVG-20010904/DTD/svg10.dtd">
<svg version="1.0" xmlns="http://www.w3.org/2000/svg"
 width="187.000000pt" height="195.000000pt" viewBox="0 0 187.000000 195.000000"
 preserveAspectRatio="xMidYMid meet">
<metadata>
Created by potrace 1.15, written by Peter Selinger 2001-2017
</metadata>
<g transform="translate(0.000000,195.000000) scale(0.100000,-0.100000)"
fill="#000000" stroke="none">
<path d="M0 1638 l0 -313 120 125 120 125 220 -225 219 -224 64 59 63 60 -224
226 -223 226 121 126 122 127 -301 0 -301 0 0 -312z"/>
<path d="M1390 1823 l121 -126 -223 -226 -224 -226 63 -60 64 -59 219 224 220
225 120 -125 120 -125 0 313 0 312 -301 0 -301 0 122 -127z"/>
<path d="M457 598 l-217 -223 -120 125 -120 125 0 -313 0 -312 301 0 301 0
-122 127 -121 126 223 226 224 226 -61 58 c-34 31 -64 57 -66 57 -3 0 -102
-100 -222 -222z"/>
<path d="M1124 762 l-60 -57 224 -226 223 -226 -121 -126 -122 -127 301 0 301
0 0 312 0 313 -120 -125 -120 -125 -218 223 c-119 122 -219 222 -222 222 -3 0
-32 -26 -66 -58z"/>
</g>
</svg>
